<svg width="48" height="48" viewBox="0 0 48 48" fill="none" xmlns="http://www.w3.org/2000/svg">
<path d="M10 16H38C38.5038 15.9984 38.9897 16.187 39.3605 16.5281C39.7313 16.8693 39.9597 17.3378 40 17.84L42 41.84C42.0221 42.1158 41.9868 42.3932 41.8963 42.6546C41.8057 42.916 41.6619 43.1558 41.4739 43.3588C41.286 43.5618 41.0579 43.7236 40.8042 43.834C40.5505 43.9444 40.2767 44.0009 40 44H8C7.72334 44.0009 7.44949 43.9444 7.19579 43.834C6.94209 43.7236 6.71404 43.5618 6.52607 43.3588C6.3381 43.1558 6.19429 42.916 6.10374 42.6546C6.01319 42.3932 5.97787 42.1158 6 41.84L8 17.84C8.04031 17.3378 8.26869 16.8693 8.63948 16.5281C9.01027 16.187 9.49616 15.9984 10 16Z" fill="#FADB5F"/>
<path d="M18 20C18 20.5304 17.7893 21.0391 17.4142 21.4142C17.0391 21.7893 16.5304 22 16 22C15.4696 22 14.9609 21.7893 14.5858 21.4142C14.2107 21.0391 14 20.5304 14 20V14C14 11.3478 15.0536 8.8043 16.9289 6.92893C18.8043 5.05357 21.3478 4 24 4C26.6522 4 29.1957 5.05357 31.0711 6.92893C32.9464 8.8043 34 11.3478 34 14V20C34 20.5304 33.7893 21.0391 33.4142 21.4142C33.0391 21.7893 32.5304 22 32 22C31.4696 22 30.9609 21.7893 30.5858 21.4142C30.2107 21.0391 30 20.5304 30 20V14C30 12.4087 29.3679 10.8826 28.2426 9.75736C27.1174 8.63214 25.5913 8 24 8C22.4087 8 20.8826 8.63214 19.7574 9.75736C18.6321 10.8826 18 12.4087 18 14V20Z" fill="#84C5F4"/>
</svg>
