<svg width="896" height="192" viewBox="0 0 896 192" fill="none" xmlns="http://www.w3.org/2000/svg">
<rect width="896" height="192" rx="5" fill="#4098D7"/>
<path d="M164.653 77.328C168.493 77.328 171.543 77.6693 173.805 78.352C176.109 78.992 177.773 80.144 178.797 81.808C179.821 83.472 180.333 85.8187 180.333 88.848C180.333 92.0053 179.714 94.416 178.477 96.08C177.282 97.7013 175.298 98.64 172.525 98.896V99.216C175.938 99.5147 178.327 100.667 179.693 102.672C181.058 104.677 181.741 107.451 181.741 110.992C181.741 114.021 181.207 116.368 180.141 118.032C179.117 119.696 177.495 120.869 175.277 121.552C173.058 122.192 170.199 122.512 166.701 122.512C163.842 122.512 161.346 122.491 159.213 122.448C157.122 122.448 155.181 122.405 153.389 122.32C151.639 122.235 149.826 122.128 147.949 122V77.84C149.613 77.6693 151.234 77.5627 152.813 77.52C154.434 77.4347 156.183 77.392 158.061 77.392C159.938 77.3493 162.135 77.328 164.653 77.328ZM164.141 84.432C162.861 84.432 161.666 84.432 160.557 84.432C159.447 84.432 158.423 84.432 157.485 84.432V96.016H164.653C167.042 96.016 168.685 95.632 169.581 94.864C170.519 94.096 170.989 92.5173 170.989 90.128C170.989 87.7813 170.498 86.2453 169.517 85.52C168.535 84.7947 166.743 84.432 164.141 84.432ZM164.781 102.224H157.485V115.408C159.703 115.408 162.199 115.408 164.973 115.408C166.765 115.408 168.173 115.237 169.197 114.896C170.221 114.555 170.925 113.936 171.309 113.04C171.735 112.144 171.949 110.821 171.949 109.072C171.949 107.28 171.735 105.893 171.309 104.912C170.882 103.931 170.135 103.248 169.069 102.864C168.045 102.437 166.615 102.224 164.781 102.224ZM197.526 90.384V111.184C197.526 112.507 197.804 113.445 198.358 114C198.913 114.555 199.852 114.832 201.174 114.832C202.326 114.832 203.5 114.64 204.694 114.256C205.889 113.872 207.318 113.232 208.982 112.336V90.384H218.454V122H211.03L210.198 117.392C207.98 119.227 205.804 120.592 203.67 121.488C201.537 122.384 199.34 122.832 197.078 122.832C191.105 122.832 188.118 119.909 188.118 114.064V90.384H197.526ZM232.904 90.384L238.92 110.864C239.09 111.675 239.261 112.485 239.432 113.296C239.602 114.107 239.752 114.917 239.88 115.728H240.648C240.904 114.917 241.138 114.085 241.352 113.232C241.565 112.336 241.778 111.547 241.992 110.864L247.944 90.384H257.992L246.664 122.384C246.152 123.963 245.426 125.541 244.488 127.12C243.592 128.741 242.44 130.192 241.032 131.472C239.666 132.752 238.002 133.712 236.04 134.352C234.12 135.035 231.837 135.205 229.192 134.864L228.488 129.488C231.09 128.805 233.117 127.888 234.568 126.736C236.018 125.584 237.149 124.069 237.96 122.192L238.088 122H236.296C234.674 122 233.65 121.232 233.224 119.696L222.856 90.384H232.904Z" fill="#E3F8FF"/>
<path d="M656.258 77.008C658.434 77.008 660.802 77.136 663.362 77.392C665.922 77.6053 668.418 78.0533 670.85 78.736L670.21 85.264C668.333 85.1787 666.114 85.1147 663.554 85.072C661.037 85.0293 658.583 85.008 656.194 85.008C654.615 85.008 653.335 85.0933 652.354 85.264C651.415 85.4347 650.733 85.8187 650.306 86.416C649.922 86.9707 649.73 87.9093 649.73 89.232C649.73 90.768 650.071 91.8773 650.754 92.56C651.479 93.2427 652.695 93.84 654.402 94.352L662.914 97.104C666.413 98.3413 668.845 99.984 670.21 102.032C671.618 104.037 672.322 106.704 672.322 110.032C672.322 113.403 671.789 116.027 670.722 117.904C669.655 119.739 667.906 121.019 665.474 121.744C663.085 122.469 659.885 122.832 655.874 122.832C654.423 122.832 652.354 122.725 649.666 122.512C646.978 122.341 643.927 121.872 640.514 121.104L641.09 114.192C644.887 114.32 647.917 114.405 650.178 114.448C652.482 114.491 654.381 114.512 655.874 114.512C658.434 114.512 660.183 114.256 661.122 113.744C662.061 113.189 662.53 111.995 662.53 110.16C662.53 108.581 662.189 107.472 661.506 106.832C660.866 106.192 659.778 105.637 658.242 105.168L649.282 102.096C645.869 100.901 643.458 99.3013 642.05 97.296C640.685 95.2907 640.002 92.624 640.002 89.296C640.002 85.9253 640.535 83.3653 641.602 81.616C642.711 79.824 644.461 78.608 646.85 77.968C649.239 77.328 652.375 77.008 656.258 77.008ZM693.566 89.552C698.899 89.552 702.718 90.4693 705.022 92.304C707.369 94.1387 708.542 96.8267 708.542 100.368C708.585 103.227 707.859 105.381 706.366 106.832C704.873 108.283 702.291 109.008 698.622 109.008H687.358C687.614 111.483 688.318 113.147 689.47 114C690.665 114.853 692.499 115.28 694.974 115.28C696.425 115.28 698.217 115.237 700.35 115.152C702.526 115.024 704.702 114.832 706.878 114.576L707.774 120.4C705.897 121.296 703.678 121.915 701.118 122.256C698.601 122.597 696.19 122.768 693.886 122.768C687.827 122.768 683.539 121.445 681.022 118.8C678.547 116.155 677.31 111.973 677.31 106.256C677.31 102.117 677.843 98.832 678.91 96.4C680.019 93.968 681.769 92.2187 684.158 91.152C686.547 90.0853 689.683 89.552 693.566 89.552ZM693.886 96.208C692.265 96.208 690.963 96.4 689.982 96.784C689.043 97.168 688.361 97.9147 687.934 99.024C687.507 100.091 687.251 101.648 687.166 103.696H696.062C697.47 103.696 698.366 103.397 698.75 102.8C699.177 102.203 699.39 101.328 699.39 100.176C699.39 98.6827 698.963 97.6587 698.11 97.104C697.257 96.5067 695.849 96.208 693.886 96.208ZM724.251 77.2L724.187 111.888C724.187 114.021 725.446 115.088 727.963 115.088H730.523L731.611 121.488C731.056 121.787 730.31 122.021 729.371 122.192C728.432 122.363 727.472 122.491 726.491 122.576C725.51 122.661 724.699 122.704 724.059 122.704C721.2 122.704 718.939 121.979 717.275 120.528C715.654 119.035 714.843 116.944 714.843 114.256V77.2H724.251ZM745.189 77.2L745.125 111.888C745.125 114.021 746.383 115.088 748.901 115.088H751.461L752.549 121.488C751.994 121.787 751.247 122.021 750.309 122.192C749.37 122.363 748.41 122.491 747.429 122.576C746.447 122.661 745.637 122.704 744.997 122.704C742.138 122.704 739.877 121.979 738.213 120.528C736.591 119.035 735.781 116.944 735.781 114.256V77.2H745.189Z" fill="#E3F8FF"/>
<path d="M344.943 77.648C348.399 77.648 351.983 77.6907 355.695 77.776C359.407 77.8187 362.799 77.9893 365.871 78.288L365.423 85.392H348.463C346.33 85.392 345.263 86.48 345.263 88.656V95.568H363.055V102.48H345.263V111.184C345.263 113.36 346.33 114.448 348.463 114.448H365.423L365.871 121.552C362.799 121.851 359.407 122.021 355.695 122.064C351.983 122.107 348.399 122.128 344.943 122.128C342.127 122.128 339.844 121.339 338.095 119.76C336.346 118.139 335.471 115.984 335.471 113.296V86.544C335.471 83.856 336.346 81.7013 338.095 80.08C339.844 78.4587 342.127 77.648 344.943 77.648ZM379.319 90.384L386.231 102.736H386.807L393.719 90.384H403.319L394.167 105.808L404.023 122H394.423L386.679 108.624H386.359L378.679 122H369.015L378.871 105.808L369.783 90.384H379.319ZM416.208 90.384L416.912 95.12C418.234 93.5413 420.005 92.24 422.224 91.216C424.485 90.1493 426.853 89.616 429.328 89.616C433.296 89.616 436.133 91.0667 437.84 93.968C439.546 96.8693 440.4 101.029 440.4 106.448C440.4 110.672 439.952 113.979 439.056 116.368C438.202 118.715 436.88 120.379 435.088 121.36C433.338 122.341 431.141 122.832 428.496 122.832C426.49 122.832 424.57 122.576 422.736 122.064C420.944 121.595 419.301 120.805 417.808 119.696C417.893 120.805 417.936 121.936 417.936 123.088C417.978 124.24 418 125.371 418 126.48V134.16H408.592V90.384H416.208ZM425.552 96.848C424.101 96.848 422.8 97.104 421.648 97.616C420.538 98.128 419.322 98.8533 418 99.792V114.704C419.237 115.045 420.389 115.365 421.456 115.664C422.522 115.92 423.738 116.048 425.104 116.048C426.469 116.048 427.557 115.813 428.368 115.344C429.178 114.875 429.776 113.957 430.16 112.592C430.544 111.227 430.736 109.2 430.736 106.512C430.736 103.909 430.544 101.904 430.16 100.496C429.818 99.088 429.264 98.128 428.496 97.616C427.728 97.104 426.746 96.848 425.552 96.848ZM456.439 77.2L456.375 111.888C456.375 114.021 457.633 115.088 460.151 115.088H462.711L463.799 121.488C463.244 121.787 462.497 122.021 461.559 122.192C460.62 122.363 459.66 122.491 458.679 122.576C457.697 122.661 456.887 122.704 456.247 122.704C453.388 122.704 451.127 121.979 449.463 120.528C447.841 119.035 447.031 116.944 447.031 114.256V77.2H456.439ZM482.88 89.552C486.848 89.552 490.027 90.1067 492.416 91.216C494.805 92.2827 496.512 94.0533 497.536 96.528C498.603 98.96 499.136 102.203 499.136 106.256C499.136 110.309 498.603 113.552 497.536 115.984C496.512 118.373 494.805 120.101 492.416 121.168C490.027 122.235 486.848 122.768 482.88 122.768C478.912 122.768 475.733 122.235 473.344 121.168C470.955 120.101 469.227 118.373 468.16 115.984C467.136 113.552 466.624 110.309 466.624 106.256C466.624 102.203 467.136 98.96 468.16 96.528C469.227 94.0533 470.955 92.2827 473.344 91.216C475.733 90.1067 478.912 89.552 482.88 89.552ZM482.88 96.4C481.216 96.4 479.915 96.6773 478.976 97.232C478.08 97.7867 477.44 98.7893 477.056 100.24C476.672 101.648 476.48 103.653 476.48 106.256C476.48 108.816 476.672 110.8 477.056 112.208C477.44 113.616 478.08 114.597 478.976 115.152C479.915 115.664 481.216 115.92 482.88 115.92C484.544 115.92 485.824 115.664 486.72 115.152C487.659 114.597 488.32 113.616 488.704 112.208C489.088 110.8 489.28 108.816 489.28 106.256C489.28 103.653 489.088 101.648 488.704 100.24C488.32 98.7893 487.659 97.7867 486.72 97.232C485.824 96.6773 484.544 96.4 482.88 96.4ZM513.014 90.384L513.91 95.184C518.262 91.4293 522.55 89.552 526.774 89.552H528.438L527.542 98.256H524.918C523.553 98.256 522.102 98.448 520.566 98.832C519.073 99.216 517.238 99.792 515.062 100.56V122H505.654V90.384H513.014ZM547.316 89.552C552.649 89.552 556.468 90.4693 558.772 92.304C561.119 94.1387 562.292 96.8267 562.292 100.368C562.335 103.227 561.609 105.381 560.116 106.832C558.623 108.283 556.041 109.008 552.372 109.008H541.108C541.364 111.483 542.068 113.147 543.22 114C544.415 114.853 546.249 115.28 548.724 115.28C550.175 115.28 551.967 115.237 554.1 115.152C556.276 115.024 558.452 114.832 560.628 114.576L561.524 120.4C559.647 121.296 557.428 121.915 554.868 122.256C552.351 122.597 549.94 122.768 547.636 122.768C541.577 122.768 537.289 121.445 534.772 118.8C532.297 116.155 531.06 111.973 531.06 106.256C531.06 102.117 531.593 98.832 532.66 96.4C533.769 93.968 535.519 92.2187 537.908 91.152C540.297 90.0853 543.433 89.552 547.316 89.552ZM547.636 96.208C546.015 96.208 544.713 96.4 543.732 96.784C542.793 97.168 542.111 97.9147 541.684 99.024C541.257 100.091 541.001 101.648 540.916 103.696H549.812C551.22 103.696 552.116 103.397 552.5 102.8C552.927 102.203 553.14 101.328 553.14 100.176C553.14 98.6827 552.713 97.6587 551.86 97.104C551.007 96.5067 549.599 96.208 547.636 96.208Z" fill="#E3F8FF"/>
</svg>
