<svg width="64" height="64" viewBox="0 0 64 64" fill="none" xmlns="http://www.w3.org/2000/svg">
<circle cx="32" cy="32" r="32" fill="#486581"/>
<path d="M20.8484 27.4C21.9404 27.4 22.8224 27.514 23.4944 27.742C24.1784 27.958 24.6764 28.336 24.9884 28.876C25.3124 29.404 25.4744 30.142 25.4744 31.09C25.4744 31.966 25.2944 32.674 24.9344 33.214C24.5864 33.742 23.9684 34.06 23.0804 34.168V34.258C23.4044 34.33 23.7464 34.504 24.1064 34.78C24.4664 35.044 24.7184 35.494 24.8624 36.13L25.9424 40H23.0624L22.1084 36.202C21.9884 35.806 21.8204 35.53 21.6044 35.374C21.4004 35.218 21.1124 35.14 20.7404 35.14C19.9484 35.14 19.2944 35.134 18.7784 35.122V40H16.0784V27.58C16.5704 27.532 17.0384 27.496 17.4824 27.472C17.9264 27.448 18.4124 27.43 18.9404 27.418C19.4684 27.406 20.1044 27.4 20.8484 27.4ZM20.7944 29.47C20.0624 29.47 19.3904 29.47 18.7784 29.47V33.07H20.7944C21.5264 33.07 22.0304 32.95 22.3064 32.71C22.5824 32.458 22.7204 31.972 22.7204 31.252C22.7204 30.544 22.5824 30.07 22.3064 29.83C22.0304 29.59 21.5264 29.47 20.7944 29.47ZM32.4847 27.4C33.6367 27.4 34.5427 27.52 35.2027 27.76C35.8747 28 36.3487 28.414 36.6247 29.002C36.9127 29.59 37.0567 30.412 37.0567 31.468C37.0567 32.524 36.9187 33.346 36.6427 33.934C36.3787 34.522 35.9347 34.93 35.3107 35.158C34.6987 35.386 33.8767 35.506 32.8447 35.518C32.4367 35.506 32.0287 35.488 31.6207 35.464C31.2247 35.44 30.8407 35.41 30.4687 35.374V40H27.7327V27.58C28.2247 27.532 28.6927 27.496 29.1367 27.472C29.5807 27.448 30.0607 27.43 30.5767 27.418C31.1047 27.406 31.7407 27.4 32.4847 27.4ZM32.4307 29.47C32.0707 29.47 31.7227 29.47 31.3867 29.47C31.0627 29.47 30.7567 29.47 30.4687 29.47V33.448H32.4307C33.1507 33.448 33.6427 33.316 33.9067 33.052C34.1707 32.788 34.3027 32.26 34.3027 31.468C34.3027 30.676 34.1707 30.148 33.9067 29.884C33.6427 29.608 33.1507 29.47 32.4307 29.47ZM43.7016 27.364C44.2776 27.364 44.7756 27.382 45.1956 27.418C45.6156 27.442 45.9996 27.484 46.3476 27.544C46.6956 27.604 47.0556 27.682 47.4276 27.778L47.2116 29.812C46.8156 29.788 46.4496 29.77 46.1136 29.758C45.7776 29.746 45.4176 29.734 45.0336 29.722C44.6616 29.71 44.2176 29.704 43.7016 29.704C43.0896 29.704 42.6096 29.83 42.2616 30.082C41.9136 30.322 41.6676 30.736 41.5236 31.324C41.3916 31.912 41.3256 32.734 41.3256 33.79C41.3256 34.834 41.3916 35.656 41.5236 36.256C41.6676 36.844 41.9136 37.258 42.2616 37.498C42.6096 37.738 43.0896 37.858 43.7016 37.858C44.5296 37.858 45.2256 37.852 45.7896 37.84C46.3536 37.816 46.9116 37.768 47.4636 37.696L47.6976 39.712C47.1216 39.892 46.5336 40.018 45.9336 40.09C45.3336 40.174 44.5896 40.216 43.7016 40.216C42.4176 40.216 41.3856 40.012 40.6056 39.604C39.8376 39.184 39.2856 38.506 38.9496 37.57C38.6136 36.634 38.4456 35.374 38.4456 33.79C38.4456 32.206 38.6136 30.946 38.9496 30.01C39.2856 29.074 39.8376 28.402 40.6056 27.994C41.3856 27.574 42.4176 27.364 43.7016 27.364Z" fill="#E3F8FF"/>
</svg>
